# xmcd
#
# Track frame offsets:
#	150
#	10538
#	19956
#	28820
#	39305
#	55924
#	65368
#	76709
#	86471
#	99593
#	112980
#	123482
#	136572
#
# Disc length: 1934 seconds
#
# Revision: 1
# Processed by: cddbd v1.5.1PL0 Copyright (c) Steve Scherf et al.
# Submitted via: audiograbber 1.83.01
#
DISCID=92078c0d
DTITLE=Bluegate - Mezi radky ...
DYEAR=2003
DGENRE=Bluegrass
TTITLE0=Fotka
TTITLE1=Klaun
TTITLE2=Mezi radky
TTITLE3=Tata
TTITLE4=Co zbejva
TTITLE5=Co bych chtel
TTITLE6=Zvlatni vlak
TTITLE7=Podzimni
TTITLE8=Tak ti mavam
TTITLE9=Par dnu
TTITLE10=Goldhash
TTITLE11=Slavik
TTITLE12=V baru
EXTD=
EXTT0=
EXTT1=
EXTT2=
EXTT3=
EXTT4=
EXTT5=
EXTT6=
EXTT7=
EXTT8=
EXTT9=
EXTT10=
EXTT11=
EXTT12=
PLAYORDER=
